<?xml version="1.0" encoding="UTF-8"?>
<svg width="20px" height="18px" viewBox="0 0 20 18" version="1.1" xmlns="http://www.w3.org/2000/svg" xmlns:xlink="http://www.w3.org/1999/xlink">
    <!-- Generator: Sketch 60 (88103) - https://sketch.com -->
    <title>Shape</title>
    <desc>Created with Sketch.</desc>
    <g id="Page-1" stroke="none" stroke-width="1" fill="none" fill-rule="evenodd">
        <g id="bucket" fill="#B4FFFF" fill-rule="nonzero">
            <path d="M17.7782,11.25 C17.7782,11.25 15.556,14.5072 15.556,15.75 C15.556,16.9928 16.5511,18 17.7782,18 C19.0053,18 20.0004,16.9928 20.0004,15.75 C20.0004,14.5072 17.7782,11.25 17.7782,11.25 Z M17.4528,7.63102 L10.2414,0.329414 C10.0244,0.109687 9.73999,0 9.45561,0 C9.17124,0 8.88686,0.109687 8.67019,0.329414 L5.83755,3.19746 L2.84519,0.167344 C2.62818,-0.0523828 2.27644,-0.0523828 2.05978,0.167344 L1.27436,0.962578 C1.05769,1.1823 1.05769,1.53844 1.27436,1.75781 L4.26707,4.78758 L0.97679,8.11898 C-0.324946,9.43664 -0.324946,11.5734 0.97679,12.8914 L5.04589,17.0114 C5.69658,17.6702 6.54971,18 7.40248,18 C8.25561,18 9.10839,17.6706 9.75908,17.0114 L17.4525,9.22184 C17.8865,8.78238 17.8865,8.07047 17.4528,7.63102 Z M13.4174,10.1261 L2.28964,10.1261 C2.33686,9.99105 2.4136,9.84551 2.54762,9.71016 L3.00422,9.24785 L5.8379,6.37875 L7.87262,8.43891 C8.3063,8.87801 9.00978,8.87801 9.44346,8.43891 C9.87714,7.9998 9.87714,7.28754 9.44346,6.84844 L7.40874,4.78828 L9.45561,2.71582 L15.0959,8.4266 L13.4174,10.1261 Z" id="Shape"></path>
        </g>
    </g>
</svg>