<?xml version="1.0" encoding="UTF-8"?>
<svg width="18px" height="23px" viewBox="0 0 18 23" version="1.1" xmlns="http://www.w3.org/2000/svg" xmlns:xlink="http://www.w3.org/1999/xlink">
    <!-- Generator: Sketch 60 (88103) - https://sketch.com -->
    <title>Combined Shape</title>
    <desc>Created with Sketch.</desc>
    <g id="Page-1" stroke="none" stroke-width="1" fill="none" fill-rule="evenodd">
        <path d="M17,18 C17.5522847,18 18,18.4477153 18,19 L18,22 C18,22.5522847 17.5522847,23 17,23 L1,23 C0.44771525,23 6.76353751e-17,22.5522847 0,22 L0,19 C-6.76353751e-17,18.4477153 0.44771525,18 1,18 L17,18 Z M9,0 C9,0 14,6.75567407 14,9.33333333 C14,11.9109926 11.7610026,14 9,14 C6.23899739,14 4,11.9109926 4,9.33333333 C4,6.75567407 9,0 9,0 Z" id="Combined-Shape" fill="#B4FFFF" fill-rule="nonzero"></path>
    </g>
</svg>