<?xml version="1.0" encoding="UTF-8"?>
<svg width="20px" height="20px" viewBox="0 0 20 20" version="1.1" xmlns="http://www.w3.org/2000/svg" xmlns:xlink="http://www.w3.org/1999/xlink">
    <!-- Generator: Sketch 60 (88103) - https://sketch.com -->
    <title>Shape</title>
    <desc>Created with Sketch.</desc>
    <g id="Page-1" stroke="none" stroke-width="1" fill="none" fill-rule="evenodd">
        <g id="pencil" fill="#B4FFFF" fill-rule="nonzero">
            <path d="M19.4493,5.55084 L17.6485,7.35162 C17.4649,7.53521 17.168,7.53521 16.9844,7.35162 L12.6485,3.01568 C12.4649,2.83209 12.4649,2.53522 12.6485,2.35162 L14.4493,0.550842 C15.1797,-0.179626 16.3672,-0.179626 17.1016,0.550842 L19.4493,2.8985 C20.1836,3.62897 20.1836,4.81646 19.4493,5.55084 Z M11.1016,3.8985 L0.843801,14.1563 L0.015676,18.9024 C-0.0976053,19.543 0.460989,20.0977 1.10161,19.9883 L5.84771,19.1563 L16.1055,8.89849 C16.2891,8.7149 16.2891,8.41803 16.1055,8.23443 L11.7696,3.8985 C11.5821,3.7149 11.2852,3.7149 11.1016,3.8985 Z M4.84771,13.2774 C4.63286,13.0626 4.63286,12.7188 4.84771,12.504 L10.8633,6.48834 C11.0782,6.2735 11.4219,6.2735 11.6368,6.48834 C11.8516,6.70318 11.8516,7.04693 11.6368,7.26178 L5.62114,13.2774 C5.4063,13.4922 5.06255,13.4922 4.84771,13.2774 Z M3.43755,16.5626 L5.31255,16.5626 L5.31255,17.9805 L2.79302,18.4219 L1.57818,17.2071 L2.01958,14.6876 L3.43755,14.6876 L3.43755,16.5626 Z" id="Shape"></path>
        </g>
    </g>
</svg>