<?xml version="1.0" encoding="UTF-8"?>
<svg width="318px" height="318px" viewBox="0 0 318 318" version="1.1" xmlns="http://www.w3.org/2000/svg" xmlns:xlink="http://www.w3.org/1999/xlink">
    <!-- Generator: Sketch 60 (88103) - https://sketch.com -->
    <title>Combined Shape</title>
    <desc>Created with Sketch.</desc>
    <g id="Page-1" stroke="none" stroke-width="1" fill="none" fill-rule="evenodd">
        <path d="M198,232 C200.209139,232 202,233.790861 202,236 L202,314 C202,316.209139 200.209139,318 198,318 L120,318 C117.790861,318 116,316.209139 116,314 L116,236 C116,233.790861 117.790861,232 120,232 L198,232 Z M82,232 C84.209139,232 86,233.790861 86,236 L86,314 C86,316.209139 84.209139,318 82,318 L4,318 C1.790861,318 2.705415e-16,316.209139 0,314 L0,236 C-2.705415e-16,233.790861 1.790861,232 4,232 L82,232 Z M314,232 C316.209139,232 318,233.790861 318,236 L318,314 C318,316.209139 316.209139,318 314,318 L236,318 C233.790861,318 232,316.209139 232,314 L232,236 C232,233.790861 233.790861,232 236,232 L314,232 Z M198,116 C200.209139,116 202,117.790861 202,120 L202,198 C202,200.209139 200.209139,202 198,202 L120,202 C117.790861,202 116,200.209139 116,198 L116,120 C116,117.790861 117.790861,116 120,116 L198,116 Z M82,116 C84.209139,116 86,117.790861 86,120 L86,198 C86,200.209139 84.209139,202 82,202 L4,202 C1.790861,202 2.705415e-16,200.209139 0,198 L0,120 C-2.705415e-16,117.790861 1.790861,116 4,116 L82,116 Z M314,116 C316.209139,116 318,117.790861 318,120 L318,198 C318,200.209139 316.209139,202 314,202 L236,202 C233.790861,202 232,200.209139 232,198 L232,120 C232,117.790861 233.790861,116 236,116 L314,116 Z M82,0 C84.209139,-4.05812251e-16 86,1.790861 86,4 L86,82 C86,84.209139 84.209139,86 82,86 L4,86 C1.790861,86 2.705415e-16,84.209139 0,82 L0,4 C-2.705415e-16,1.790861 1.790861,4.05812251e-16 4,0 L82,0 Z M314,0 C316.209139,-4.05812251e-16 318,1.790861 318,4 L318,82 C318,84.209139 316.209139,86 314,86 L236,86 C233.790861,86 232,84.209139 232,82 L232,4 C232,1.790861 233.790861,4.05812251e-16 236,0 L314,0 Z M198,0 C200.209139,-4.05812251e-16 202,1.790861 202,4 L202,82 C202,84.209139 200.209139,86 198,86 L120,86 C117.790861,86 116,84.209139 116,82 L116,4 C116,1.790861 117.790861,4.05812251e-16 120,0 L198,0 Z" id="Combined-Shape" fill="#BCFFFF" fill-rule="nonzero"></path>
    </g>
</svg>