<?xml version="1.0" encoding="UTF-8"?>
<svg width="14px" height="16px" viewBox="0 0 14 16" version="1.1" xmlns="http://www.w3.org/2000/svg" xmlns:xlink="http://www.w3.org/1999/xlink">
    <!-- Generator: Sketch 60 (88103) - https://sketch.com -->
    <title>double_arrow-24px</title>
    <desc>Created with Sketch.</desc>
    <g id="Page-1" stroke="none" stroke-width="1" fill="none" fill-rule="evenodd">
        <g id="double_arrow-24px" transform="translate(7.000000, 8.000000) rotate(-90.000000) translate(-7.000000, -8.000000) translate(-5.000000, -4.000000)">
            <g id="Bounding_Box">
                <rect id="Rectangle" x="0" y="0" width="24" height="24"></rect>
                <rect id="Rectangle" x="0" y="0" width="24" height="24"></rect>
            </g>
            <g id="Master" transform="translate(4.000000, 5.000000)" fill="#B4FFFF" fill-rule="nonzero">
                <g id="Group">
                    <path d="M15.08,6.42 L11.04,0.77 C10.7,0.29 10.15,0 9.56,0 L9.56,0 C8.07,0 7.21,1.68 8.07,2.89 L11,7 L8.07,11.11 C7.2,12.32 8.07,14 9.56,14 L9.56,14 C10.15,14 10.71,13.71 11.05,13.23 L15.09,7.58 C15.33,7.23 15.33,6.77 15.08,6.42 Z" id="Path"></path>
                    <path d="M8.08,6.42 L4.05,0.77 C3.7,0.29 3.15,0 2.56,0 L2.56,0 C1.07,0 0.2,1.68 1.07,2.89 L4,7 L1.07,11.11 C0.2,12.32 1.07,14 2.56,14 L2.56,14 C3.15,14 3.71,13.71 4.05,13.23 L8.09,7.58 C8.33,7.23 8.33,6.77 8.08,6.42 Z" id="Path"></path>
                </g>
            </g>
        </g>
    </g>
</svg>