<?xml version="1.0" encoding="UTF-8"?>
<svg width="20px" height="20px" viewBox="0 0 20 20" version="1.1" xmlns="http://www.w3.org/2000/svg" xmlns:xlink="http://www.w3.org/1999/xlink">
    <!-- Generator: Sketch 60 (88103) - https://sketch.com -->
    <title>Shape</title>
    <desc>Created with Sketch.</desc>
    <g id="Page-1" stroke="none" stroke-width="1" fill="none" fill-rule="evenodd">
        <g id="bucket" fill="#B4FFFF" fill-rule="nonzero">
            <g id="choose">
                <path d="M1.98242,13.0176 C1.51367,13.4863 1.25,14.1223 1.25,14.7856 L1.25,16.5625 L0,18.75 L1.25,20 L3.4375,18.75 L5.21445,18.75 C5.87734,18.75 6.51328,18.4867 6.98203,18.018 L11.9289,13.07189 L6.92891,8.07189 L1.98242,13.0176 Z M18.9016,1.09845 C17.4379,-0.366394 15.0625,-0.366394 13.5988,1.09845 L10.5875,4.10978 L10.0758,3.59806 C9.70703,3.22931 9.11289,3.23439 8.75,3.59806 L7.14961,5.19845 C6.78359,5.56447 6.78359,6.15822 7.14961,6.52423 L13.4754,12.85 C13.8441,13.2188 14.4383,13.2137 14.8012,12.85 L16.4016,11.25 C16.7676,10.884 16.7676,10.2902 16.4016,9.92423 L15.8898,9.41251 L18.9012,6.40118 C20.3664,4.93712 20.3664,2.5629 18.9016,1.09845 Z" id="Shape"></path>
            </g>
        </g>
    </g>
</svg>