<?xml version="1.0" encoding="UTF-8"?>
<svg width="318px" height="318px" viewBox="0 0 318 318" version="1.1" xmlns="http://www.w3.org/2000/svg" xmlns:xlink="http://www.w3.org/1999/xlink">
    <!-- Generator: Sketch 60 (88103) - https://sketch.com -->
    <title>Combined Shape</title>
    <desc>Created with Sketch.</desc>
    <g id="Page-1" stroke="none" stroke-width="1" fill="none" fill-rule="evenodd">
        <path d="M51,261 C54.3137085,261 57,263.686292 57,267 L57,312 C57,315.313708 54.3137085,318 51,318 L6,318 C2.6862915,318 4.05812251e-16,315.313708 0,312 L0,267 C-4.05812251e-16,263.686292 2.6862915,261 6,261 L51,261 Z M138,261 C141.313708,261 144,263.686292 144,267 L144,312 C144,315.313708 141.313708,318 138,318 L93,318 C89.6862915,318 87,315.313708 87,312 L87,267 C87,263.686292 89.6862915,261 93,261 L138,261 Z M225,261 C228.313708,261 231,263.686292 231,267 L231,312 C231,315.313708 228.313708,318 225,318 L180,318 C176.686292,318 174,315.313708 174,312 L174,267 C174,263.686292 176.686292,261 180,261 L225,261 Z M312,261 C315.313708,261 318,263.686292 318,267 L318,312 C318,315.313708 315.313708,318 312,318 L267,318 C263.686292,318 261,315.313708 261,312 L261,267 C261,263.686292 263.686292,261 267,261 L312,261 Z M51,174 C54.3137085,174 57,176.686292 57,180 L57,225 C57,228.313708 54.3137085,231 51,231 L6,231 C2.6862915,231 4.05812251e-16,228.313708 0,225 L0,180 C-4.05812251e-16,176.686292 2.6862915,174 6,174 L51,174 Z M138,174 C141.313708,174 144,176.686292 144,180 L144,225 C144,228.313708 141.313708,231 138,231 L93,231 C89.6862915,231 87,228.313708 87,225 L87,180 C87,176.686292 89.6862915,174 93,174 L138,174 Z M225,174 C228.313708,174 231,176.686292 231,180 L231,225 C231,228.313708 228.313708,231 225,231 L180,231 C176.686292,231 174,228.313708 174,225 L174,180 C174,176.686292 176.686292,174 180,174 L225,174 Z M312,174 C315.313708,174 318,176.686292 318,180 L318,225 C318,228.313708 315.313708,231 312,231 L267,231 C263.686292,231 261,228.313708 261,225 L261,180 C261,176.686292 263.686292,174 267,174 L312,174 Z M51,87 C54.3137085,87 57,89.6862915 57,93 L57,138 C57,141.313708 54.3137085,144 51,144 L6,144 C2.6862915,144 4.05812251e-16,141.313708 0,138 L0,93 C-4.05812251e-16,89.6862915 2.6862915,87 6,87 L51,87 Z M138,87 C141.313708,87 144,89.6862915 144,93 L144,138 C144,141.313708 141.313708,144 138,144 L93,144 C89.6862915,144 87,141.313708 87,138 L87,93 C87,89.6862915 89.6862915,87 93,87 L138,87 Z M225,87 C228.313708,87 231,89.6862915 231,93 L231,138 C231,141.313708 228.313708,144 225,144 L180,144 C176.686292,144 174,141.313708 174,138 L174,93 C174,89.6862915 176.686292,87 180,87 L225,87 Z M312,87 C315.313708,87 318,89.6862915 318,93 L318,138 C318,141.313708 315.313708,144 312,144 L267,144 C263.686292,144 261,141.313708 261,138 L261,93 C261,89.6862915 263.686292,87 267,87 L312,87 Z M51,0 C54.3137085,-6.08718376e-16 57,2.6862915 57,6 L57,51 C57,54.3137085 54.3137085,57 51,57 L6,57 C2.6862915,57 4.05812251e-16,54.3137085 0,51 L0,6 C-4.05812251e-16,2.6862915 2.6862915,6.08718376e-16 6,0 L51,0 Z M138,0 C141.313708,-6.08718376e-16 144,2.6862915 144,6 L144,51 C144,54.3137085 141.313708,57 138,57 L93,57 C89.6862915,57 87,54.3137085 87,51 L87,6 C87,2.6862915 89.6862915,6.08718376e-16 93,0 L138,0 Z M225,0 C228.313708,-6.08718376e-16 231,2.6862915 231,6 L231,51 C231,54.3137085 228.313708,57 225,57 L180,57 C176.686292,57 174,54.3137085 174,51 L174,6 C174,2.6862915 176.686292,6.08718376e-16 180,0 L225,0 Z M312,0 C315.313708,-6.08718376e-16 318,2.6862915 318,6 L318,51 C318,54.3137085 315.313708,57 312,57 L267,57 C263.686292,57 261,54.3137085 261,51 L261,6 C261,2.6862915 263.686292,6.08718376e-16 267,0 L312,0 Z" id="Combined-Shape" fill="#BCFFFF" fill-rule="nonzero"></path>
    </g>
</svg>