<?xml version="1.0" encoding="UTF-8"?>
<svg width="1768px" height="1725px" viewBox="0 0 1768 1725" version="1.1" xmlns="http://www.w3.org/2000/svg" xmlns:xlink="http://www.w3.org/1999/xlink">
    <!-- Generator: Sketch 60 (88103) - https://sketch.com -->
    <title>Combined Shape</title>
    <desc>Created with Sketch.</desc>
    <g id="Page-1" stroke="none" stroke-width="1" fill="none" fill-rule="evenodd">
        <g id="gmail" transform="translate(-1.000000, -1.000000)" fill="#000000" fill-rule="nonzero">
            <g id="Group" transform="translate(885.400000, 863.800000) scale(-1, 1) rotate(-180.000000) translate(-885.400000, -863.800000) translate(0.900000, 0.800000)">
                <path d="M884.1,0.8 C1372.289,0.8 1768.1,386.984375 1768.1,863.3 C1768.1,1339.61563 1372.289,1725.8 884.1,1725.8 C395.911,1725.8 0.1,1339.61563 0.1,863.3 C0.1,386.984375 395.911,0.8 884.1,0.8 Z M884.6,143.8 C477.9425,143.8 147.1,466.3434 147.1,862.8 C147.1,1259.2566 477.9425,1581.8 884.6,1581.8 C1291.2575,1581.8 1622.1,1259.2566 1622.1,862.8 C1622.1,466.3434 1291.2575,143.8 884.6,143.8 Z M502.64,516 L502.64,778.81 C502.64,923.39 503.1,1041.63 503.56,1041.63 C504.17,1041.63 590.09,980.67 694.39,906.09 L884.3,770.39 L1073.61,905.62 C1177.6,980.05 1263.37,1041.16 1264.14,1041.32 C1264.75,1041.63 1265.36,923.7 1265.36,779.12 L1265.36,516.3 L1288.79,516.3 C1313.6,516.3 1322.33,517.83 1335.2,524.11 C1352.51,532.69 1368.43,553.52 1372.42,572.66 C1373.64,578.48 1374.1,664.25 1374.1,870.55 C1374.1,1126.01 1373.79,1161.55 1371.8,1169.51 C1364.6,1196.62 1342.24,1217.29 1314.21,1222.5 C1305.94,1224.03 1303.49,1223.88 1300.12,1222.19 C1297.98,1220.97 1203.79,1153.73 1090.91,1072.71 C978.04,991.54 884.92,925.23 884.16,925.23 C883.24,925.23 791.04,990.78 679.24,1071.03 C567.28,1151.28 473.55,1218.37 470.64,1220.36 C464.82,1224.34 462.67,1224.49 450.57,1221.74 C439.24,1219.14 432.96,1216.23 423.61,1209.18 C408,1197.38 398.5,1182.22 395.44,1163.99 C394.21,1157.1 393.9,1069.96 394.21,863.96 C394.67,579.4 394.67,573.58 397.73,565.31 C404.62,546.01 421.93,528.25 440.92,520.74 C448.58,517.83 453.48,517.22 476.3,516.61 L502.64,516 Z" id="Combined-Shape"></path>
            </g>
        </g>
    </g>
</svg>