<?xml version="1.0" encoding="UTF-8"?>
<svg width="23px" height="24px" viewBox="0 0 23 24" version="1.1" xmlns="http://www.w3.org/2000/svg" xmlns:xlink="http://www.w3.org/1999/xlink">
    <!-- Generator: Sketch 60 (88103) - https://sketch.com -->
    <title>Combined Shape</title>
    <desc>Created with Sketch.</desc>
    <g id="Page-1" stroke="none" stroke-width="1" fill="none" fill-rule="evenodd">
        <g id="menu" transform="translate(-8.000000, -55.000000)" fill="#B4FFFF" fill-rule="nonzero">
            <g id="option">
                <g id="transform">
                    <g id="eraser">
                        <g id="pencil" transform="translate(8.000000, 55.000000)">
                            <path d="M22,22 C22.5522847,22 23,22.4477153 23,23 C23,23.5522847 22.5522847,24 22,24 L1,24 C0.44771525,24 6.76353751e-17,23.5522847 0,23 C-6.76353751e-17,22.4477153 0.44771525,22 1,22 L22,22 Z M11.1016,3.8985 C11.2852,3.7149 11.5821,3.7149 11.7696,3.8985 L11.7696,3.8985 L16.1055,8.23443 C16.2891,8.41803 16.2891,8.7149 16.1055,8.89849 L16.1055,8.89849 L5.84771,19.1563 L1.10161,19.9883 C0.460989,20.0977 -0.0976053,19.543 0.015676,18.9024 L0.015676,18.9024 L0.843801,14.1563 Z M3.43755,14.6876 L2.01958,14.6876 L1.57818,17.2071 L2.79302,18.4219 L5.31255,17.9805 L5.31255,16.5626 L3.43755,16.5626 L3.43755,14.6876 Z M11.6368,6.48834 C11.4219,6.2735 11.0782,6.2735 10.8633,6.48834 L10.8633,6.48834 L4.84771,12.504 C4.63286,12.7188 4.63286,13.0626 4.84771,13.2774 C5.06255,13.4922 5.4063,13.4922 5.62114,13.2774 L5.62114,13.2774 L11.6368,7.26178 C11.8516,7.04693 11.8516,6.70318 11.6368,6.48834 Z M17.1016,0.550842 L19.4493,2.8985 C20.1836,3.62897 20.1836,4.81646 19.4493,5.55084 L17.6485,7.35162 C17.4649,7.53521 17.168,7.53521 16.9844,7.35162 L12.6485,3.01568 C12.4649,2.83209 12.4649,2.53522 12.6485,2.35162 L14.4493,0.550842 C15.1797,-0.179626 16.3672,-0.179626 17.1016,0.550842 Z" id="Combined-Shape"></path>
                        </g>
                    </g>
                </g>
            </g>
        </g>
    </g>
</svg>