<?xml version="1.0" encoding="UTF-8"?>
<svg width="318px" height="318px" viewBox="0 0 318 318" version="1.1" xmlns="http://www.w3.org/2000/svg" xmlns:xlink="http://www.w3.org/1999/xlink">
    <!-- Generator: Sketch 60 (88103) - https://sketch.com -->
    <title>Combined Shape</title>
    <desc>Created with Sketch.</desc>
    <g id="Page-1" stroke="none" stroke-width="1" fill="none" fill-rule="evenodd">
        <path d="M312,174 C315.313708,174 318,176.686292 318,180 L318,312 C318,315.313708 315.313708,318 312,318 L180,318 C176.686292,318 174,315.313708 174,312 L174,180 C174,176.686292 176.686292,174 180,174 L312,174 Z M138,174 C141.313708,174 144,176.686292 144,180 L144,312 C144,315.313708 141.313708,318 138,318 L6,318 C2.6862915,318 4.05812251e-16,315.313708 0,312 L0,180 C-4.05812251e-16,176.686292 2.6862915,174 6,174 L138,174 Z M138,0 C141.313708,-6.08718376e-16 144,2.6862915 144,6 L144,138 C144,141.313708 141.313708,144 138,144 L6,144 C2.6862915,144 4.05812251e-16,141.313708 0,138 L0,6 C-4.05812251e-16,2.6862915 2.6862915,6.08718376e-16 6,0 L138,0 Z M312,0 C315.313708,-6.08718376e-16 318,2.6862915 318,6 L318,138 C318,141.313708 315.313708,144 312,144 L180,144 C176.686292,144 174,141.313708 174,138 L174,6 C174,2.6862915 176.686292,6.08718376e-16 180,0 L312,0 Z" id="Combined-Shape" fill="#BCFFFF" fill-rule="nonzero"></path>
    </g>
</svg>